<svg xmlns="http://www.w3.org/2000/svg" viewBox="0 0 360 180">
  <path d="M-6126.292-17531.293c4.978-1.227,31.787-6.029,53.608-11.191s17.9-5.643,26.479-7.934,108.773-19.713,120.383-20.521,22.385-.98,37.513-2.855,39.229-4.168,50.262.98,9.55,8.264,14.135,7.932,17.494.246,18.719,6.865.331,11.523-11.193,16.182-42.416,12.418-43.973,13.4-3.751,6.229,5.075,6.057,19.2.969,20.914,7.184-.821,12.1-12.75,17-13.742,4.99-.576,6.865,18.708,8.48,20.35,8.9,13.411-1.227,18.229,2.783,5.811,10.457,1.557,14.711-29.679,15.764-81.326,23.205-104.521,15.518-119.231,19.859-52.824,13.363-63.048,17.127-15.875,4-27.472,0-21.662-11.855-21.98-15.2.662-8.5-3.1-12.664-2.452-6.287-1.557-8.58-1.618.072-10.126-5.971-13.976-11.033-13.976-12.5,2.207-15.189-7.441-16.746,2.7-1.85,3.433-10.555,17.641-4.939,26.063-6.656,12.259-3.922,6.706-8.336-4.131-13.473-9.77-17.322S-6131.27-17530.066-6126.292-17531.293Z" transform="translate(6160.486 17575.961)"/>
</svg>